<?xml version="1.0" standalone="no"?>
<!DOCTYPE svg PUBLIC "-//W3C//DTD SVG 20010904//EN"
 "http://www.w3.org/TR/2001/REC-SVG-20010904/DTD/svg10.dtd">
<svg version="1.0" xmlns="http://www.w3.org/2000/svg"
 width="48.000000pt" height="64.000000pt" viewBox="0 0 48.000000 64.000000"
 preserveAspectRatio="xMidYMid meet">

<g transform="translate(0.000000,64.000000) scale(0.100000,-0.100000)"
fill="#000000" stroke="none">
<path d="M220 585 l-54 -55 -13 25 c-27 50 -89 60 -128 20 -31 -30 -32 -73 -5
-108 18 -22 20 -40 20 -147 0 -107 -2 -125 -20 -147 -27 -35 -26 -78 5 -108
71 -72 178 28 115 108 -17 22 -20 40 -20 145 0 108 2 124 23 155 l22 35 58
-56 57 -56 0 42 c0 39 2 42 28 42 47 0 52 -13 52 -153 0 -114 -2 -132 -20
-154 -27 -35 -26 -78 5 -108 71 -72 178 28 115 108 -18 22 -20 40 -20 162 0
104 -4 143 -16 166 -17 33 -66 59 -113 59 -28 0 -30 3 -33 40 l-3 41 -55 -56z
m-110 -40 c15 -18 10 -45 -12 -59 -35 -22 -74 27 -48 59 16 19 44 19 60 0z m0
-400 c15 -18 10 -45 -12 -59 -35 -22 -74 27 -48 59 16 19 44 19 60 0z m320 0
c26 -32 -13 -81 -47 -59 -23 14 -28 41 -13 59 16 19 44 19 60 0z"/>
</g>
</svg>
